<svg width="1311" height="861" fill="none" xmlns="http://www.w3.org/2000/svg"><path opacity=".05" d="M287.346 646.954c166.756 36.417 266.162 19.395 320.813-27.779m0 0c54.337-46.903 64.432-123.613 52.494-207.243m-52.494 207.243C405.616 505.64 178.879 373.898 3 276.978L498.511 3.411m109.648 615.764c431.041 241.619 752.521 400.775 241.013-33.663m-188.519-173.58c-13.448-94.205-54.854-197.193-92.475-276.247m92.475 276.247c50.452 51.379 112.885 109.342 188.519 173.58m-188.519-173.58C448.956 196.348 448.192 96.681 568.178 135.685m0 0C532.932 61.621 501.009 8.564 498.511 3.411m69.667 132.274c82.062 26.675 220.606 118.216 386.781 281.9M498.511 3.411c-.249-.513-.206-.55.156-.086l-.156.086zm350.661 582.101l105.787-167.927m0 0C1063.53 524.526 1183.89 662.261 1308 832.82l-222.41-622.605-130.631 207.37z" stroke="#fff" stroke-width="5" stroke-linecap="round" stroke-linejoin="round"/></svg>