<svg id="prefix__Layer_1" data-name="Layer 1" xmlns="http://www.w3.org/2000/svg" viewBox="0 0 318.62 161.81"><defs><style>.prefix__cls-1{fill:#231f20}</style></defs><path class="prefix__cls-1" d="M2.5 104.9c8.67-1.07 16.85-4 23.35-10C31.93 89.34 36 81.87 39.41 74.47 47.54 57.05 54 38.88 60.15 20.68q3-8.77 5.79-17.6l-4.82-1.33c-3.46 12.7-6.86 25.56-7.71 38.75a139.42 139.42 0 00.06 17c.43 7.5.85 15.07 1.91 22.5A18 18 0 0058 87.66c2 2.88 5.15 1.51 7.77.23 3.29-1.6 5.83-4.25 8.47-6.73s5-4.81 7.44-7.3a154.24 154.24 0 0020.77-26.25c7.39-11.89 13.53-24.55 20.15-36.89l-4.33-2.52A337.84 337.84 0 00103 47.85c-2.11 6.48-4.23 13-6.55 19.38C94 74.1 91.14 80.75 88 87.36c-2.8 5.93-5.92 12.32-7 18.85-.35 2.14-.49 5.24 2.13 6s4.42-1.74 5.72-3.45c2.36-3.14 4.32-6.58 6.61-9.78 1.7-2.37 3.48-4.68 5.4-6.89a53.82 53.82 0 014.83-5 20.58 20.58 0 015.2-3.55c.16-.07.53-.2-.11 0 .14 0 .27-.11.41-.15s.5-.17.76-.24.46-.09.69-.16c.55-.16-.58 0 0 0h1.07c-.72 0-.26-.16.17.08.64.35-.59-.36 0 0s.06 0-.15-.15c.43.41-.49-.93-.5-1v-1.17l2.41-1.84c.6 0 2.53 1.3 1.25.3a5.46 5.46 0 00-1.6-.85 7.82 7.82 0 00-3-.37 13.33 13.33 0 00-7.53 3.06c-7 5.62-7.28 15.76-5.91 23.87.43 2.55.78 5.24 3.33 6.51 2.09 1 4.54.92 6.79.59a18.6 18.6 0 0011.77-6.57 23.6 23.6 0 005.27-12.69c.38-3.5.08-7.5-1.66-10.64-1.48-2.69-4.91-4.32-7.42-1.82-2.72 2.72-1.54 8-.93 11.24 1 5.11 2.47 10.1 3.92 15.09.45 1.55.69 3.58 1.53 5a2.72 2.72 0 004.2.51 11.4 11.4 0 002.17-3.64c1.17-2.54 2.22-5.13 3.27-7.72 3.22-7.92 6.28-15.91 9.44-23.86 7.92-20 16-40.07 26.09-59.11q1.67-3.17 3.45-6.28l-4.57-1.92c-6.9 24.47-14.84 48.6-22.18 72.93q-3.68 12.18-7.12 24.43h4.83a230.55 230.55 0 01-3.14-32c-.22-5.34-.31-10.69-.14-16 .07-2.2.19-4.41.41-6.6 0-.43.09-.85.14-1.28 0-.2 0-.2.12-.74a22.82 22.82 0 01.46-2.3c.08-.3.17-.59.26-.89l.1-.28c.16-.51-.28.51 0 .08a5.52 5.52 0 00.28-.54c.2-.54-.38.49.05 0-.14.17-.55.43-.62.39a7.05 7.05 0 001.79-.37l1.5-.27a67 67 0 016.78-.77c8.58-.55 17.16.27 25.67 1.38 6 .78 12.56 2.71 18.43.33a19.17 19.17 0 009.74-9.53c5.14-10.4 5.14-23.53 2.46-34.53a2.52 2.52 0 00-4.56-.6c-13.25 24.36-26.13 48.85-36.87 74.43-3.31 7.89-6.46 15.84-9.51 23.83h4.82a64.1 64.1 0 01-1.44-19 91.9 91.9 0 012-15.42c.17-.81.37-1.61.59-2.41.09-.3.2-.61.29-.91.22-.72-.18.11.07-.2 0 0 .05-.1.09-.14-.19.21-1 1.47-1.42 1a12 12 0 002.37-.05 10 10 0 013.46.71c1.65.65 3.58 1.95 5.43 2.66a17.73 17.73 0 007.9 1.08c4.07-.39 7.83-2.82 11.06-5.17a92 92 0 0011.81-10.42 110.2 110.2 0 0010.32-12.2 40 40 0 005.8-11.33c1-3.11 1.91-6.25 3.08-9.3a25.35 25.35 0 012.95-4.81c.26-.4.53-.5 0 0a5.43 5.43 0 00.58-.69c1.72-2.06 3.39-4.18 5.07-6.28l-3.93-3a131.31 131.31 0 01-17.13 29.37c-5.32 6.69-10.62 13.18-14.39 20.92a135.29 135.29 0 00-7.88 21.17c-.78 2.66 3.31 4.52 4.57 1.93 5.72-11.75 15.8-21.45 27.08-27.89l-3.67-2.82q-1.41 7.52-2.83 15c-.44 2.37-1 4.73-1.31 7.11s-.17 4.88 1.64 6.71c2.38 2.42 6.22 3 9.47 3.17a33.8 33.8 0 009.5-1.05 47.67 47.67 0 0017.79-8.74c4.34-3.4 8.62-8.07 9.71-13.65a13.21 13.21 0 00.23-3.76 4.34 4.34 0 00-2.33-3.76 8.13 8.13 0 00-6.06-.69c-4.7 1.12-8.76 5-11.75 8.58-3.24 3.91-6.27 8.64-7.14 13.74a10.94 10.94 0 00.72 6.82 11.52 11.52 0 007.32 6.13 16.54 16.54 0 009.74-1.06 44.53 44.53 0 009.1-4.56c6.53-4.45 11.17-10.92 14.38-18.06l-4.57-1.92c-2.08 6.28 0 17.29 7.42 19.23 4.24 1.1 8.74-1.75 11.79-4.4 3.66-3.18 6.34-7.38 8.87-11.46l-4.66-1.26c-.69 5.21-.12 16.1 7.45 15.73 4.59-.23 9.08-3.7 11.76-7.23 2.51-3.31 3.14-7.23 3.37-11.27a31.44 31.44 0 01.65-6 12.61 12.61 0 013.85-6.23 2.54 2.54 0 000-3.53c-3.65-4-9.63-6.28-14.61-3.28-2.75 1.66-.24 6 2.52 4.32a5.22 5.22 0 013.4-.65 8.86 8.86 0 015.15 3.14v-3.49c-3.86 3.62-5.44 8.07-5.82 13.24-.29 4.07-.16 8.28-3.09 11.49a14.38 14.38 0 01-6 4.19c-.88.28-1.46.5-2 .2.37.2-.28-.27 0 0a2.08 2.08 0 01-.5-.57c-1.77-2.69-1.51-7-1.1-10 .35-2.62-3.47-3.18-4.66-1.26a49.79 49.79 0 01-6.9 9.34 18.08 18.08 0 01-4.21 3.18 7.54 7.54 0 01-3.62 1.1c-2-.32-3.39-2.78-4.05-4.82a13.45 13.45 0 01-.16-8.32c.88-2.65-3.39-4.53-4.57-1.93-2.65 5.89-6.23 11.47-11.42 15.44A39 39 0 01248 76.9c-2.24.95-4.82 1.86-7.29 1.54a5.77 5.77 0 01-2.94-1.25 7.33 7.33 0 01-1.47-1.72 8.91 8.91 0 01-.57-1c.26.54-.08-.24-.12-.37a4.87 4.87 0 01-.12-.52c-.09-.42 0 .61 0-.1a13.08 13.08 0 010-1.4 3.64 3.64 0 01.15-1.08 16.62 16.62 0 01.49-1.84 30.87 30.87 0 018.12-12.25 22.51 22.51 0 012.75-2.28 16.87 16.87 0 011.62-1 13.25 13.25 0 011.23-.6 10 10 0 011.54-.43c.68-.13-.5 0 .18 0a7.3 7.3 0 01.81 0c-.73 0 1.06.41.44.11a2.58 2.58 0 01.51.29c.23.16.23.15 0 0 .11.09.21.19.31.29l-.65-1.1a8.82 8.82 0 01-.47 4.29 15.75 15.75 0 01-2.52 4.38 33.83 33.83 0 01-10.2 8.41 41.6 41.6 0 01-13.12 4.85 26.26 26.26 0 01-6.26.37c-1.65-.1-4.78-.3-5.73-1.87-.79-1.3.17-3.79.43-5.16l1.13-6 2.37-12.63A2.54 2.54 0 00215 46c-12 6.83-22.81 17.22-28.88 29.69l4.57 1.92c3.16-10.73 7.06-21.28 13.59-30.46 4.71-6.62 10.52-12.92 15-20a144.15 144.15 0 0010.26-19.83 2.54 2.54 0 00-.64-3.22 2.48 2.48 0 00-3.29.19c-2 2.57-4.29 5-6.2 7.7-.52.73-1 1.49-1.53 2.22a30.1 30.1 0 00-3.57 8.22c-.9 2.8-1.66 5.68-2.74 8.43-.15.37.25-.56 0 .07-.09.2-.18.4-.28.6-.18.36-.37.72-.56 1.07-.48.87-1 1.73-1.55 2.57a88 88 0 01-9.29 11.64 96.12 96.12 0 01-11.71 10.93 42.48 42.48 0 01-5.51 3.66 18.43 18.43 0 01-2.24 1.07c-.37.13-.73.26-1.1.36-.19.05-1.41.28-.77.2a13.62 13.62 0 01-7.1-1.14 41 41 0 00-5.77-2.72 16.85 16.85 0 00-4.35-.61c-1.41 0-3.25-.17-4.34.9a7.72 7.72 0 00-1.6 3.54 87 87 0 00-2.53 17 70.37 70.37 0 001.51 22c.65 2.57 4 2.16 4.82 0a674.74 674.74 0 0133.72-74.45C196.91 20 201 12.5 205.07 5l-4.57-.6c2.3 9.31 2.43 20.31-1.33 29.28-1.56 3.71-4.15 7.2-7.64 8.65a12.74 12.74 0 01-6.48.79c-4.16-.43-8.3-1.16-12.45-1.68-8.6-1.06-17.31-1.75-25.95-.91q-3 .29-6 .8a11.49 11.49 0 00-3.93 1 6 6 0 00-2.28 3.32c-1.16 3.26-1.3 7-1.5 10.41-.29 5.16-.25 10.35-.1 15.52a245.58 245.58 0 003.43 36.72c.46 2.52 4.19 2.24 4.83 0 6.9-24.47 14.83-48.6 22.17-72.93q3.67-12.18 7.12-24.43c.76-2.72-3.16-4.41-4.57-1.93-9.64 16.87-17.21 34.93-24.54 52.89-3.4 8.32-6.69 16.68-10 25.05-1.33 3.39-2.66 6.78-4 10.16-.54 1.35-1.08 2.7-1.63 4-.25.59-.49 1.18-.74 1.76-.16.39.23-.53 0 .08 0 .13-.11.25-.16.38-.13.29-.25.59-.38.88-.62 1.41-1.26 2.81-2 4.15 0 .1-.14.19-.19.29-.14.32.47-.51.2-.25a1.59 1.59 0 00-.13.13 2.31 2.31 0 012.78-.32c.36.21 1.11.87 1 1.33a3.94 3.94 0 00-.25-.92c-.28-1-.57-2-.86-3-1.31-4.49-2.66-9-3.65-13.58a36.71 36.71 0 01-.86-5.51v-1.12-.91c0 .15.11-.49.14-.61s.12-.49 0-.13.32-.28 0 0c0 0-.38.23-.08.13 0 0-.61.15-.48.15s-.36-.1-.56-.18c.08 0 .15.1.22.13.38.15-.35-.4-.07 0 .12.15.5.64.12.1a6.1 6.1 0 01.38.6c.08.14.37.8.17.31.14.34.25.69.36 1a17.61 17.61 0 01-.06 9.28 17.13 17.13 0 01-6.35 9.54c-2.37 1.72-6.43 3-9.31 2.32-.46-.12-.37-.26-.59-.25 0 0 .09.07.11.11a35.93 35.93 0 01-.85-4.35 33.19 33.19 0 01-.29-7.11 16.27 16.27 0 013-8.89c.24-.33-.21.26 0 0l.3-.36c.23-.24.45-.49.69-.73l.64-.58c.52-.47-.1 0 .48-.37s.87-.55 1.33-.8c.19-.1.77-.35.24-.13.27-.11.55-.21.83-.3a12.82 12.82 0 011.36-.33c.33-.06-.54.06-.21 0H113.54c-.46 0-.42-.12-.06 0a3.19 3.19 0 00.44.13c.14 0-.52-.3 0 0s-.49-.4 0 0a2.55 2.55 0 001.8.75 2.61 2.61 0 002.41-1.83c.64-1.83-1.15-3.11-2.6-3.62a8 8 0 00-4.47-.12 18.21 18.21 0 00-7 3.78 56.71 56.71 0 00-9.39 9.82q-3.25 4.17-6.19 8.57c-1 1.56-2 3.18-3.1 4.73a14.6 14.6 0 01-1.12 1.47 9 9 0 01-.68.7c-.23.2 0 .17-.24.15l.81-.21a1.57 1.57 0 011.56.93c.25.34.3.21.2.45a7.6 7.6 0 000-1.36 26.21 26.21 0 011-4.05 88.64 88.64 0 013.72-9.81c2.87-6.4 6-12.65 8.48-19.21s4.85-13.37 7.07-20.13c4.82-14.78 9.82-29.4 16.41-43.47 1.35-2.87-2.78-5.4-4.32-2.52-5.77 10.8-11.22 21.72-17.37 32.28a146.9 146.9 0 01-17.82 24.59c-4.28 4.74-8.84 9.24-13.51 13.6-2.35 2.2-4.57 4.33-7.67 5.47l-.68.22-.31.09c-.82.14-.38.31 1.3.51a7.48 7.48 0 01-.5-.83 17.71 17.71 0 01-1.2-3.76c-.72-3.19-.78-6.92-1.09-10.35s-.58-6.76-.8-10.14a159.48 159.48 0 01-.36-16.65c.54-13.68 4.1-27 7.68-40.15.85-3.08-3.84-4.38-4.82-1.33C56.88 15 52.42 28.2 47.63 41.27c-3.21 8.78-6.64 17.45-10.42 26-3.25 7.35-6.67 15-12 21.15C19.32 95.2 11.35 98.81 2.5 99.9a2.58 2.58 0 00-2.5 2.5 2.51 2.51 0 002.5 2.5z"/><path class="prefix__cls-1" d="M179.09 96.75c6.26 3.29 13.37 4.89 20.28 6.08a213.65 213.65 0 0028.12 2.74 290.43 290.43 0 0061.35-3.91c9.09-1.61 18.22-3.76 26.67-7.56L313 89.78c-.68.37-1.38.71-2.08 1-.89.41-1.09.49-2.14.89-1.67.64-3.36 1.19-5.08 1.69a122.76 122.76 0 01-12 2.76c-8.71 1.61-17.48 2.63-26.26 3.71-7.8 1-15.69 1.82-23.35 3.58A34.06 34.06 0 00224.3 113a46.23 46.23 0 00-13 25.3 69.29 69.29 0 00-1 12.12 47.14 47.14 0 00.23 5.44c.19 1.66.38 3.62 1.56 4.92a3 3 0 004.46.05 11 11 0 002-3.43c1.29-3 2.35-6.1 3.34-9.21.89-2.8 1.28-5.71 2.28-8.49a32.84 32.84 0 015.52-9.64 37.43 37.43 0 018.06-7.15 50.29 50.29 0 014.81-2.81c.74-.38 1.48-.75 2.24-1.09s1.52-.69 2.12-.94a105.25 105.25 0 0117.84-5.17l3.28-.7-2.44-4.2a30.55 30.55 0 00-6.33 7.72c-1.72 2.9-3.27 6.45-2.88 9.9a7.88 7.88 0 007.62 7.07 11.36 11.36 0 009.89-5.78c2.59-4.69 2.52-10.6 1.13-15.65a2.5 2.5 0 00-2.75-1.79 2.55 2.55 0 00-2.16 2.45 20.5 20.5 0 001.51 11.21c1.61 3.48 5.18 7.6 9.44 5.89 3.44-1.39 4.55-4.9 5.81-8a96.62 96.62 0 014.83-10.8 2.53 2.53 0 00-2.16-3.76c-7-.61-12.06 7-10.59 13.39 1.6 7 9 11 15.73 10.77a24.83 24.83 0 0011.3-3.08 8.14 8.14 0 003.9-6.83 15.29 15.29 0 00-4.56-11.33c-4.4-4.44-10.52-6.2-16.49-3.9a2.57 2.57 0 00-1.74 3.07 2.51 2.51 0 003.07 1.75 10.32 10.32 0 016.5-.59 11.94 11.94 0 014 2.14 24 24 0 012.21 2.19c.41.44-.29-.46.07.09.08.11.16.23.23.35a10.73 10.73 0 01.62 1.1 11.34 11.34 0 01.79 2.2 7.12 7.12 0 01.34 2.4v.66c-.05.8.07-.23 0 .23a4.52 4.52 0 01-.15.61c0 .07-.29.69-.11.33a2.4 2.4 0 01-1.37 1.35 21.3 21.3 0 01-4.14 1.55c-4.9 1.36-10.94.91-14.08-3.64a6.37 6.37 0 01-.76-6.47 5.4 5.4 0 015.31-3.34l-2.15-3.76a83.27 83.27 0 00-4.1 9c-.72 1.73-1.41 3.48-2.12 5.22a6.62 6.62 0 01-1.46 2.08 1.31 1.31 0 01-.87.47c.4 0-.21-.13-.46-.31a8.84 8.84 0 01-2.54-3.6 16.7 16.7 0 01-.81-8.64l-4.91.67c1.37 5 1.36 14.43-5.47 15.1a3.15 3.15 0 01-2.59-.81 2.69 2.69 0 01-.82-2c-.07-2.18 1.06-4.64 2.34-6.76a25.89 25.89 0 015.46-6.57c2-1.72-.19-4.67-2.43-4.18-12.36 2.7-24.8 5.71-34.94 13.73a38.58 38.58 0 00-13.07 19.22c-.75 2.53-1.16 5.09-2 7.6-.48 1.48-1 3-1.52 4.43-.25.69-.51 1.38-.78 2.06s-.34.86-.79 1.76c-.21.43-.52.83-.7 1.26-.11.23.4-.37 0 0 .64-.53.84-.51 1.7-.4s1.06.13 1.37.62c-.32-.5 0 .4-.08-.16 0-.28-.15-.55-.2-.83s-.07-.36-.1-.54c-.08-.43.07.62 0-.14-.06-.47-.1-.93-.13-1.4a74.18 74.18 0 010-9.07c.52-9.35 3.54-18.79 9.63-26a35.76 35.76 0 018.85-7.64c.73-.45 1.48-.87 2.24-1.26l.73-.35.16-.07.35-.14a33.73 33.73 0 013.65-1.18c6.88-1.87 14-2.7 20.94-3.57 8.78-1.1 17.58-2.09 26.32-3.5 7.6-1.23 15.33-2.68 22.51-5.55a45.24 45.24 0 004.7-2.15 2.5 2.5 0 10-2.54-4.32l-1.17.51c.54-.23-.13.06-.2.08l-.61.25c-.85.34-1.7.66-2.56 1-1.76.63-3.54 1.19-5.33 1.71-4.1 1.19-8.26 2.15-12.44 3a238.93 238.93 0 01-28.77 3.68q-15.26 1.11-30.58.75a226.19 226.19 0 01-27.74-2.2 113 113 0 01-12.65-2.59q-2.66-.72-5.24-1.66c-.43-.15-.85-.32-1.27-.48l-.52-.22c.6.25 0 0-.09 0-.74-.33-1.48-.68-2.2-1.06-2.85-1.49-5.38 2.82-2.53 4.32z"/></svg>